# xmcd CD Database Entry
#
# Track frame offsets:
# 182
# 22082
# 31970
# 65385
# 77907
# 100335
# 113802
# 133645
# 157375
# 175572
#
# Disc length: 2572 seconds
#
# Revision: 1
# Processed by: cddbd v1.4PL0 Copyright (c) Steve Scherf et al.
# Submitted via: tcd 2.0b
#
DISCID=820a0a0a
DTITLE=NINA GALINDO/ANTROPOFAGIA AMOROSA
DYEAR=1900
DGENRE=
TTITLE0=SOLA
TTITLE1=UN DIA
TTITLE2=MUJER EN LA SOMBRA
TTITLE3=COBIJATE EN MIS BRAZOS
TTITLE4=EL BOILER
TTITLE5=OTRA VEZ
TTITLE6=DAMELO
TTITLE7=ANTROPOFAGIA AMOROSA
TTITLE8=COMO FLAMA DE QUINQUE
TTITLE9=LOS GATOS NO CREEN EN LOS ANGELES
EXTD=
EXTT0=
EXTT1=
EXTT2=
EXTT3=
EXTT4=
EXTT5=
EXTT6=
EXTT7=
EXTT8=
EXTT9=
PLAYORDER=
